<mxfile host="app.diagrams.net" modified="2023-04-11T10:50:48.845Z" agent="Mozilla/5.0 (Macintosh; Intel Mac OS X 10.15; rv:109.0) Gecko/20100101 Firefox/111.0" version="21.1.5" etag="PyLQfmOhJtZaEVg0wBA8" type="github">
  <diagram name="Page-1" id="BuHnekea4fwXxePmSo1F">
    <mxGraphModel>
      <root>
        <mxCell id="0" />
        <mxCell id="1" parent="0" />
      </root>
    </mxGraphModel>
  </diagram>
</mxfile>
